<?xml version="1.0" encoding="UTF-8"?>
<svg xmlns="http://www.w3.org/2000/svg" xmlns:xlink="http://www.w3.org/1999/xlink" width="24pt" height="24pt" viewBox="0 0 24 24" version="1.1">
<g id="surface3611562">
<path style="fill-rule:nonzero;fill:rgb(0%,61.960787%,49.803922%);fill-opacity:1;stroke-width:13;stroke-linecap:butt;stroke-linejoin:round;stroke:rgb(100%,36.078432%,0.392157%);stroke-opacity:1;stroke-miterlimit:10;" d="M 207.176003 47.092355 L 207.176003 65.912002 L 18.824001 65.912002 L 18.824001 47.092355 Z M 207.176003 103.590179 L 207.176003 122.409826 L 18.824001 122.409826 L 18.824001 103.590179 Z M 207.176003 160.088003 L 207.176003 178.907649 L 18.824001 178.907649 L 18.824001 160.088003 Z M 207.176003 160.088003 " transform="matrix(0.10046,0,0,0.10046,0.648,0.648)"/>
<path style=" stroke:none;fill-rule:nonzero;fill:rgb(100%,36.078432%,0.392157%);fill-opacity:1;" d="M 2.539062 5.378906 L 2.539062 7.269531 L 21.460938 7.269531 L 21.460938 5.378906 Z M 2.539062 11.054688 L 2.539062 12.945312 L 21.460938 12.945312 L 21.460938 11.054688 Z M 2.539062 16.730469 L 2.539062 18.621094 L 21.460938 18.621094 L 21.460938 16.730469 Z M 2.539062 16.730469 "/>
</g>
</svg>
